<svg xmlns="http://www.w3.org/2000/svg" xmlns:xlink="http://www.w3.org/1999/xlink" viewBox="0 0 750 429.02"><defs><style>.cls-1{fill:url(#linear-gradient);}</style><linearGradient id="linear-gradient" x1="375" y1="162.2" x2="375" y2="500.18" gradientUnits="userSpaceOnUse"><stop offset="0" stop-color="#071812"/><stop offset="0.36" stop-color="#091b14"/><stop offset="0.61" stop-color="#0e241a"/><stop offset="0.82" stop-color="#163323"/><stop offset="1" stop-color="#214730"/></linearGradient></defs><title>Asset 2</title><g id="Layer_2" data-name="Layer 2"><g id="OBJECTS"><path class="cls-1" d="M738,277.56s0,0,0-.05a2.5,2.5,0,0,0-2.5-2.5h-1.18a53.18,53.18,0,0,0,2.37-15.75c0-14.39-10.5-23.49-24.33-34.37-7.11-5.6-14-10.4-17.29-12.67V201.56a5.53,5.53,0,0,0-.71-10.49l-1.38-17.89-1.38,17.89a5.53,5.53,0,0,0-.71,10.49v10.52a160.12,160.12,0,0,0-16.21,12c-10.57,8.85-25.41,20.34-25.41,35.18A53.18,53.18,0,0,0,651.61,275h-1.18a2.5,2.5,0,0,0-2.5,2.5s0,0,0,0H635.6l-.11-7.39c2.09,0,3.77-1.07,3.77-2.34s-1.72-2.33-3.85-2.35h0c.46-.1,6-1.37,6.34-6.86h0v-8.16h-6.56l-1.35-87.7c1.75-.07,3.14-.94,3.14-2s-1.42-2-3.2-2v0c.83-.2,5.08-1.43,5.35-5.88h0v-7h-5.54L632.33,65h.33c1.69,0,3.07-.83,3.07-1.85s-1.37-1.85-3.07-1.85h0s4.75-.9,5-5.4h0V49.55h-5.58L631.84,33h.89a.58.58,0,1,0,0-1.17h-.28a12.46,12.46,0,0,0,.55-3.69c0-3.37-2.46-8.9-5.7-11.45-1.76-1.39-3.46-5.17-4.18-6.92h.13V6.65a1.3,1.3,0,0,0,.81-1.2,1.28,1.28,0,0,0-1-1.23L622.77,0l-.33,4.21a1.28,1.28,0,0,0-1,1.23,1.3,1.3,0,0,0,.81,1.2V9.72h.16c-.64,1.67-2.13,5.2-4,6.73-2.48,2.07-6,8.16-6,11.64a12.43,12.43,0,0,0,.56,3.69h-.28a.58.58,0,1,0,0,1.17h.89l-.25,16.6h-5.58V56h0s.49,4.93,5,5.4h0c-1.69,0-3.06.83-3.06,1.85S611.19,65,612.88,65h.33L612,145.76h-5.54v7h0s.53,5.27,5.33,5.89v0c-1.78.05-3.2.93-3.2,2s1.39,1.94,3.14,2l-1,66.13h-.57v-6.79h-7.55v6.79h-4.65l-.54-35.33c1.42-.06,2.55-.76,2.55-1.64s-1.15-1.6-2.6-1.64v0c.67-.16,4.13-1.16,4.35-4.78h0v-5.71h-4.5l-1-65.6h.26c1.38,0,2.49-.67,2.49-1.5s-1.12-1.5-2.49-1.5h0s3.86-.73,4.08-4.38h0v-5.21H596l-.21-13.49h.72a.47.47,0,1,0,0-.95h-.22a10.09,10.09,0,0,0,.45-3,14,14,0,0,0-4.63-9.3c-1.43-1.13-2.81-4.2-3.4-5.62h.11v-2.5a1,1,0,0,0-.14-2l-.26-3.42-.26,3.42a1,1,0,0,0-.79,1,1.05,1.05,0,0,0,.66,1v2.5h.13c-.52,1.36-1.74,4.23-3.22,5.47-2,1.68-4.83,6.63-4.83,9.46a10.09,10.09,0,0,0,.45,3h-.23a.47.47,0,1,0,0,.95H581l-.21,13.49h-4.53v5.21h0s.39,4,4.08,4.38h0c-1.38,0-2.49.67-2.49,1.5s1.11,1.5,2.49,1.5h.26l-1,65.6h-4.5v5.71h0s.43,4.28,4.33,4.78v0c-1.45,0-2.6.76-2.6,1.64s1.13,1.58,2.55,1.64L579,222.08h-5.07v6.79h-6.79v-6.79h-7.55v6.79h-6.79v-6.79h-3.9v-3H550a2.5,2.5,0,1,0,0-5h-1.18a53.15,53.15,0,0,0,2.37-15.75c0-14.39-10.5-23.49-24.33-34.37-7.11-5.6-14-10.4-17.29-12.67V140.63a5.53,5.53,0,0,0-.71-10.49l-1.38-17.89-1.38,17.89a5.53,5.53,0,0,0-.71,10.49v10.52a159.87,159.87,0,0,0-16.21,12c-10.57,8.85-25.41,20.34-25.41,35.18a53.15,53.15,0,0,0,2.37,15.75H465a2.5,2.5,0,0,0,0,5h1.13v3h-6.92v6.79h-6.79v-6.79h-7.55v6.79H438v-6.79h-5V173.75l-2.17-.06A40.85,40.85,0,0,0,434,157.94c0-14.39-14.9-38.78-32.65-41.86-12.13-2.1-20.47-16.9-24-24.6h2.12V85.56a6.67,6.67,0,0,0,0-10.58V73.09h-.61l-.3-2a5.08,5.08,0,0,0-1.31-8.74l-1.52-10.15H376a16.53,16.53,0,0,0,13.84-7.48,14.5,14.5,0,1,1-13.1-25.59c-.25,0-.49,0-.74,0a16.54,16.54,0,0,0-.93,33.06l-1.53,10.18a5.08,5.08,0,0,0-1.31,8.74l-.3,2h-.61V75a6.67,6.67,0,0,0,0,10.58v5.92h2.13c-3.52,7.67-11.6,22.28-22.61,23.79-18.2,2.49-34.1,27.83-34.1,42.67a40.84,40.84,0,0,0,3.19,15.75l-2.17.06v48.32H312v6.79h-6.79v-6.79h-7.55v6.79h-6.79v-6.79h-6.92v-3H285a2.5,2.5,0,1,0,0-5h-1.18a53.15,53.15,0,0,0,2.37-15.75c0-14.84-14.84-26.33-25.41-35.18a159.66,159.66,0,0,0-16.21-12V140.63a5.53,5.53,0,0,0-.71-10.49l-1.38-17.89-1.38,17.89a5.53,5.53,0,0,0-.71,10.49v10.65c-3.32,2.28-10.18,7.08-17.29,12.67-13.83,10.88-24.33,20-24.33,34.37a53.15,53.15,0,0,0,2.37,15.75H200a2.5,2.5,0,1,0,0,5h1.13v3h-3.9v6.79h-6.79v-6.79h-7.55v6.79h-6.79v-6.79H171l-.44-28.54c1.42-.06,2.55-.76,2.55-1.64s-1.15-1.6-2.6-1.64v0c3.9-.5,4.33-4.78,4.33-4.78h0v-5.71h-4.5l-1-65.6h.26c1.38,0,2.49-.67,2.49-1.5s-1.11-1.5-2.49-1.5h0c3.68-.38,4.08-4.38,4.08-4.38h0v-5.21h-4.53L169,88.06h.72a.47.47,0,1,0,0-.95h-.23a10.09,10.09,0,0,0,.45-3c0-2.83-2.82-7.77-4.83-9.46-1.48-1.24-2.7-4.11-3.22-5.47H162v-2.5a1.05,1.05,0,0,0,.66-1,1,1,0,0,0-.79-1l-.26-3.42-.26,3.42a1,1,0,0,0-.79,1,1.05,1.05,0,0,0,.66,1v2.5h.11c-.58,1.42-2,4.49-3.4,5.62a14,14,0,0,0-4.63,9.3,10.09,10.09,0,0,0,.45,3h-.22a.47.47,0,1,0,0,.95h.72L154,101.55h-4.53v5.21h0c.22,3.65,4.08,4.38,4.08,4.38h0c-1.38,0-2.49.67-2.49,1.5s1.11,1.5,2.49,1.5h.26l-1,65.6h-4.5v5.71h0c.22,3.62,3.67,4.62,4.35,4.78v0c-1.45,0-2.6.76-2.6,1.64s1.13,1.58,2.55,1.64l-.54,35.33h-4.65v-6.79h-7.55v6.79h-.57l-1-66.13c1.75-.07,3.14-.94,3.14-2s-1.42-2-3.2-2v0c4.8-.62,5.33-5.89,5.33-5.89h0v-7H138L136.79,65h.32c1.69,0,3.06-.83,3.06-1.85s-1.37-1.85-3.06-1.85h0c4.53-.47,5-5.4,5-5.4h0V49.55h-5.58L136.3,33h.89a.58.58,0,1,0,0-1.17h-.28a12.43,12.43,0,0,0,.56-3.69c0-3.48-3.48-9.57-6-11.64-1.82-1.52-3.32-5.06-4-6.73h.16V6.65a1.3,1.3,0,0,0,.81-1.2,1.28,1.28,0,0,0-1-1.23L127.23,0l-.32,4.21a1.28,1.28,0,0,0-1,1.23,1.3,1.3,0,0,0,.81,1.2V9.72h.13c-.72,1.75-2.42,5.53-4.18,6.92-3.24,2.55-5.7,8.08-5.7,11.45a12.47,12.47,0,0,0,.55,3.69h-.28a.58.58,0,0,0,0,1.17h.89l-.26,16.6h-5.58V56h0c.27,4.5,5,5.4,5,5.4h0c-1.69,0-3.06.83-3.06,1.85S115.65,65,117.34,65h.32l-1.24,80.71h-5.54v7h0c.27,4.45,4.52,5.68,5.35,5.88v0c-1.78.05-3.2.93-3.2,2s1.39,1.94,3.14,2l-1.35,87.7h-6.56v8.16h0c.33,5.49,5.88,6.76,6.34,6.86h0c-2.13,0-3.85,1.06-3.85,2.35s1.68,2.3,3.77,2.34l-.11,7.39H102.06s0,0,0,0a2.5,2.5,0,0,0-2.5-2.5H98.39a53.18,53.18,0,0,0,2.37-15.75c0-14.84-14.84-26.34-25.41-35.18a160.1,160.1,0,0,0-16.21-12V201.56a5.53,5.53,0,0,0-.71-10.49l-1.38-17.89-1.38,17.89A5.53,5.53,0,0,0,55,201.56V212.2c-3.32,2.28-10.18,7.08-17.29,12.67-13.83,10.88-24.33,20-24.33,34.37A53.18,53.18,0,0,0,15.71,275H14.54a2.5,2.5,0,0,0-2.5,2.5s0,0,0,.05H0V429H750V277.56ZM130.77,127.72h-7.09v-7.55h0c0-1.92,3.54-3.47,3.54-3.47s3.5,1.55,3.54,3.47h0Zm0-31.52h-7.09V88.66h0c0-1.92,3.54-3.47,3.54-3.47s3.5,1.55,3.54,3.47h0Zm0-49.82h-7.09V38.84h0c0-1.92,3.54-3.47,3.54-3.47s3.5,1.55,3.54,3.47h0Zm33.72,118.7h-5.76v-6.13h0c0-1.56,2.88-2.82,2.88-2.82s2.85,1.26,2.88,2.82h0Zm0-25.62h-5.76v-6.13h0c0-1.56,2.88-2.82,2.88-2.82s2.85,1.26,2.88,2.82h0Zm0-40.49h-5.76V92.85h0c0-1.56,2.88-2.82,2.88-2.82s2.85,1.26,2.88,2.82h0Zm426.77,66.1H585.5v-6.13h0c0-1.56,2.88-2.82,2.88-2.82s2.85,1.26,2.88,2.82h0Zm0-25.62H585.5v-6.13h0c0-1.56,2.88-2.82,2.88-2.82s2.85,1.26,2.88,2.82h0Zm0-40.49H585.5V92.85h0c0-1.56,2.88-2.82,2.88-2.82s2.85,1.26,2.88,2.82h0Zm35,28.74h-7.08v-7.55h0c0-1.92,3.54-3.47,3.54-3.47s3.5,1.55,3.54,3.47h0Zm0-31.52h-7.08V88.66h0c0-1.92,3.54-3.47,3.54-3.47s3.5,1.55,3.54,3.47h0Z"/></g></g></svg>